<svg width="95" height="92" viewBox="0 0 95 92" fill="none" xmlns="http://www.w3.org/2000/svg">
<path d="M60.701 45.6731C60.701 57.949 59.0654 69.0216 56.4481 76.9909C55.1377 80.981 53.5991 84.1376 51.9388 86.2759C50.2683 88.4273 48.5945 89.4045 47.0103 89.4045C45.4261 89.4045 43.7523 88.4273 42.0819 86.2759C40.4215 84.1376 38.8829 80.981 37.5725 76.9909C34.9552 69.0216 33.3196 57.949 33.3196 45.6731C33.3196 33.3972 34.9552 22.3246 37.5725 14.3553C38.8829 10.3652 40.4215 7.20854 42.0819 5.07022C43.7523 2.91892 45.4261 1.94171 47.0103 1.94171C48.5945 1.94171 50.2683 2.91892 51.9388 5.07022C53.5991 7.20854 55.1377 10.3652 56.4481 14.3553C59.0654 22.3246 60.701 33.3972 60.701 45.6731Z" stroke="url(#paint0_linear_1_2)" stroke-width="2"/>
<path d="M47.5 58.3279C34.7239 58.3279 23.1962 56.7542 14.8955 54.2337C10.7389 52.9716 7.44798 51.4889 5.21837 49.8882C2.96477 48.2704 1.97937 46.6733 1.97937 45.2022C1.97937 43.7312 2.96477 42.1341 5.21837 40.5162C7.44798 38.9156 10.7389 37.4328 14.8955 36.1707C23.1962 33.6503 34.7239 32.0765 47.5 32.0765C60.2761 32.0765 71.8038 33.6503 80.1045 36.1707C84.2611 37.4328 87.552 38.9156 89.7816 40.5162C92.0352 42.1341 93.0206 43.7312 93.0206 45.2022C93.0206 46.6733 92.0352 48.2704 89.7816 49.8882C87.552 51.4889 84.2611 52.9716 80.1045 54.2337C71.8038 56.7542 60.2761 58.3279 47.5 58.3279Z" stroke="url(#paint1_linear_1_2)" stroke-width="2"/>
<path d="M47.0103 16.9508L51.9965 40.4078L76.3918 45.2022L51.9965 49.9967L47.0103 73.4536L42.0241 49.9967L17.6289 45.2022L42.0241 40.4078L47.0103 16.9508Z" fill="url(#paint2_linear_1_2)" stroke="#F8F0FD" stroke-width="1.5"/>
<defs>
<linearGradient id="paint0_linear_1_2" x1="32.3196" y1="45.6731" x2="58.7528" y2="42.166" gradientUnits="userSpaceOnUse">
<stop stop-color="#FF62B7"/>
<stop offset="1" stop-color="#9F53FF"/>
</linearGradient>
<linearGradient id="paint1_linear_1_2" x1="47.5" y1="31.0765" x2="50.6256" y2="56.5571" gradientUnits="userSpaceOnUse">
<stop stop-color="#FF62B7"/>
<stop offset="1" stop-color="#9F53FF"/>
</linearGradient>
<linearGradient id="paint2_linear_1_2" x1="17.6289" y1="45.2022" x2="63.3544" y2="25.991" gradientUnits="userSpaceOnUse">
<stop stop-color="#FF62B7"/>
<stop offset="1" stop-color="#9F53FF"/>
</linearGradient>
</defs>
</svg>
