<svg width="212" height="212" viewBox="0 0 212 212" fill="none" xmlns="http://www.w3.org/2000/svg">
<g clip-path="url(#clip0_9_55)">
<path d="M0 106C0 47.4671 47.4671 0 106 0C164.533 0 212 47.4671 212 106C212 164.533 164.533 212 106 212C47.4671 212 0 164.533 0 106Z" fill="url(#paint0_linear_9_55)"/>
<path d="M160.474 160.26C158.722 160.175 151.801 160.303 151.16 160.389C149.622 160.602 147.998 160.004 148.041 158.551C148.084 157.441 148.426 156.372 148.255 155.689C147.315 152.228 144.666 141.504 143.555 137.317C143.213 135.907 151.929 133.087 152.1 134.626C152.741 140.778 152.57 153.809 152.527 156.031C152.527 156.031 161.67 156.415 161.756 158.039C161.841 158.979 162.226 160.389 160.474 160.26Z" fill="#BA7947"/>
<path d="M142.829 127.448C142.615 129.926 141.974 132.019 143.598 137.317C144.922 136.676 148.853 135.053 152.143 134.626C151.844 132.148 152.228 120.526 149.024 117.194C145.649 113.69 114.63 121.851 113.904 120.74C113.904 120.74 98.3523 131.25 104.804 135.608C112.751 140.863 142.829 127.448 142.829 127.448Z" fill="#F861BD"/>
<path d="M32.5562 159.406C32.3853 157.654 29.9927 151.972 29.8218 151.331C29.3946 149.836 29.6509 148.169 31.1463 147.956C32.2571 147.827 33.368 147.998 34.0089 147.699C37.2559 146.204 47.3817 142.957 51.3124 141.205C52.2096 140.821 53.1495 140.436 54.1322 140.052C58.1056 138.556 58.661 147.571 57.1657 147.956C51.2269 149.579 36.5723 151.63 34.3507 151.972C34.3507 151.972 36.5723 159.919 34.9915 160.303C34.0516 160.517 32.7271 161.158 32.5562 159.406Z" fill="#BA7947"/>
<path d="M67.4623 136.249C62.6344 137.274 58.1056 138.556 54.1322 140.052C55.0721 141.205 57.1229 146.631 57.1657 147.956C58.661 147.571 70.3249 145.093 70.3249 145.093C73.9992 144.324 95.8742 139.966 102.027 136.805C103.65 136.035 117.621 131.934 120.356 125.696C121.381 123.346 108.606 117.536 105.146 118.134C103.479 118.134 100.659 118.39 98.9077 119.33C96.2588 120.697 94.5498 123.688 94.5498 123.688C86.6457 127.918 79.0834 132.276 76.9899 133.344C73.9137 134.925 67.4623 136.249 67.4623 136.249Z" fill="#B256F1"/>
<path d="M108.222 30.4627C106.598 30.4627 107.453 37.2132 107.025 39.264L108.136 41.6993C107.154 56.5248 109.802 62.9762 109.802 62.9762C108.82 71.8202 107.752 88.8674 108.35 92.1999C108.905 95.5324 115.741 95.1479 115.998 91.7299C116.254 88.3547 116.126 85.3212 116.083 81.946C116.083 78.5707 115.57 65.967 115.271 63.0189C115.229 62.6344 111.768 41.6993 111.768 41.6993C111.768 41.6993 111.811 40.8448 112.281 39.4349C112.964 37.4696 112.793 34.5216 112.067 32.9408C111.426 31.5736 109.845 30.4627 108.222 30.4627Z" fill="#BA7947"/>
<path d="M107.709 37.2132C107.709 37.2132 107.88 35.077 106.769 34.8634C105.829 34.6925 105.487 34.7352 107.025 39.264C107.025 39.264 107.666 39.2213 107.709 37.2132Z" fill="#BA7947"/>
<path d="M123.517 94.2507C123.688 88.9956 119.33 87.6711 116.468 82.0742C116.126 81.3906 112.879 79.468 111.17 79.4252C109.29 79.3825 107.367 79.6816 105.915 81.2197C104.804 82.416 102.582 86.133 104.419 95.9597C104.846 99.7622 108.179 115.442 105.231 118.177C105.231 118.177 110.443 122.15 113.861 123.004C117.279 123.859 120.398 125.696 120.398 125.696C123.987 117.279 120.825 103.308 121.595 98.0532C121.637 98.0959 123.474 95.7461 123.517 94.2507Z" fill="#CD5BDD"/>
<path d="M114.972 79.8952C114.972 79.8952 113.605 76.0927 112.75 72.6747L107.025 72.2902C108.136 75.7082 107.324 80.3224 107.324 80.3224C112.665 79.767 114.887 81.6042 116.297 82.1596L114.972 79.8952Z" fill="#BA7947"/>
<path d="M108.734 59.1737C107.239 56.9093 104.804 57.1229 103.394 57.422C98.9504 58.3192 97.7114 60.5836 96.6433 63.7025C95.1906 67.8041 105.445 73.1447 107.367 73.4438C112.409 74.1701 116.553 68.3168 117.578 65.6679C118.689 62.7626 117.407 63.1471 116.211 62.8053C116.168 62.8053 116.04 62.5917 116.04 62.5917C115.656 62.4208 115.058 62.2926 114.63 61.8227C114.63 61.8227 114.246 61.7799 114.032 61.7372C113.904 61.6945 113.819 61.6518 113.819 61.4809C113.819 61.0109 113.819 60.5409 113.69 60.3273C113.349 59.5582 109.418 60.2418 108.734 59.1737Z" fill="#BA7947"/>
<path d="M114.545 63.7025C114.545 63.7025 114.801 63.4889 115.314 62.1645C115.314 61.9508 115.229 61.609 114.759 61.7372C114.417 61.8227 114.759 62.7199 114.545 63.7025Z" fill="#B66244"/>
<path d="M114.545 63.7026C114.545 63.7026 115.314 63.6598 116.04 62.549C116.083 62.3781 115.998 62.1645 115.912 62.1217C115.57 61.8227 115.271 62.1645 115.271 62.1645C114.801 63.4889 114.545 63.7026 114.545 63.7026Z" fill="#814836"/>
<path d="M95.8315 63.7453C94.0798 68.7441 98.9504 77.9299 109.802 74.1274C110.529 73.871 111.554 73.0593 110.956 71.0939C110.529 69.7267 109.674 68.5732 109.674 68.5732C109.418 68.2314 109.162 67.8896 108.863 67.505C108.521 67.0778 105.957 66.5224 106.043 66.0097C106.983 60.84 105.145 57.8493 103.821 57.3793C100.488 56.8239 97.7114 58.4047 95.8315 63.7453Z" fill="#49230A"/>
<path d="M107.965 68.8722C110.443 68.915 110.871 68.0177 111.212 66.6505L107.495 66.1806L105.872 66.3515C105.53 67.7614 105.487 68.8295 107.965 68.8722Z" fill="#BA7947"/>
<path d="M100.702 74.2128C99.2922 75.0246 97.0705 73.6574 95.7461 71.0939C94.4216 68.5731 94.4643 65.8388 95.8742 65.027C97.2841 64.2152 98.865 65.5397 100.189 68.0605C101.514 70.6239 102.069 73.401 100.702 74.2128Z" fill="#2C170C"/>
<path d="M106.769 65.6252C106.342 65.5397 105.957 65.4115 105.701 65.3261C105.274 65.1552 105.017 64.9843 105.017 64.9843V66.6078C105.231 66.6933 105.445 66.7787 105.658 66.8214C105.658 66.8214 105.658 66.6505 105.658 66.3515V66.3942C106.043 66.3087 106.641 66.2233 107.453 66.266C107.495 66.3087 108.094 65.8815 106.769 65.6252Z" fill="#4C230C"/>
<path d="M100.232 74.9819C98.7368 75.8364 96.3442 74.2983 94.8916 71.5212C93.4389 68.7441 93.4389 65.7961 94.9343 64.9416C96.4297 64.0871 98.1387 65.5397 99.5913 68.3168C101.087 71.1366 101.728 74.1274 100.232 74.9819Z" fill="#49230A"/>
<path d="M96.0879 72.632C95.917 72.7174 95.447 72.1193 94.9771 71.2648C94.5498 70.4103 94.2935 69.6413 94.4644 69.5558C94.6353 69.4704 95.0198 69.9831 95.447 70.8376C95.917 71.6921 96.2588 72.5038 96.0879 72.632Z" fill="#4C230C"/>
<path d="M105.872 28.3265C104.248 28.3265 105.103 35.077 104.676 37.1278L105.786 39.5631C104.804 54.3885 107.453 60.84 107.453 60.84C106.47 69.684 105.402 86.7311 106 90.0637C106.555 93.3962 113.391 93.0117 113.648 89.5937C113.904 86.2184 113.776 83.185 113.733 79.8097C113.733 76.4345 113.22 63.8307 112.921 60.8827C112.879 60.4982 109.418 39.5631 109.418 39.5631C109.418 39.5631 109.461 38.7086 109.931 37.2987C110.614 35.3333 110.443 32.3853 109.717 30.8045C109.076 29.4373 107.495 28.3265 105.872 28.3265Z" fill="#BA7947"/>
<path d="M105.359 35.077C105.359 35.077 105.53 32.9407 104.419 32.7271C103.479 32.5562 103.137 32.5989 104.676 37.1278C104.676 37.1278 105.316 37.085 105.359 35.077Z" fill="#BA7947"/>
</g>
<defs>
<linearGradient id="paint0_linear_9_55" x1="106" y1="0" x2="106" y2="212" gradientUnits="userSpaceOnUse">
<stop stop-color="#FAF4EC"/>
<stop offset="1" stop-color="#A9D7CF"/>
</linearGradient>
<clipPath id="clip0_9_55">
<rect width="212" height="212" fill="white"/>
</clipPath>
</defs>
</svg>
